<?xml version="1.0" encoding="utf-8"?>
<!-- Generator: Adobe Illustrator 16.0.0, SVG Export Plug-In . SVG Version: 6.00 Build 0)  -->
<!DOCTYPE svg PUBLIC "-//W3C//DTD SVG 1.1//EN" "http://www.w3.org/Graphics/SVG/1.1/DTD/svg11.dtd">
<svg version="1.1" id="Layer_1" xmlns="http://www.w3.org/2000/svg" xmlns:xlink="http://www.w3.org/1999/xlink" x="0px" y="0px"
	 width="87px" height="33px" viewBox="352.5 289.5 87 33" enable-background="new 352.5 289.5 87 33" xml:space="preserve">
<path id="XMLID_2_" display="none" d="M305.156,414.057c0-0.957,0-1.913,0-2.869v-0.956c0-1.913-0.956,3.825,0,1.912v-0.956
	c0-2.869,0.956-4.781,0.956-7.65c0.957-6.693,2.869-12.431,4.781-19.125c4.781-17.212,9.562-33.469,15.3-50.681
	c12.431-38.25,25.819-75.544,41.119-111.881c0-0.957,0.956-0.957,0.956-1.913c0.957-0.956,0-0.956-0.956,1.913
	c0.956-0.957,0.956-2.869,1.913-3.825c0-0.956,0.956-0.956,0.956-1.913c0.957-0.956,0-0.956-0.956,1.913c0,0,0-0.956,0.956-0.956
	c0.957-2.869,1.913-4.781,3.825-7.65c1.913-4.781,3.825-9.562,6.694-13.388c2.869-5.737,5.737-12.431,9.562-18.169
	c-7.65-1.912-16.256-4.781-23.906-6.693c0.956,8.606,0.956,16.256,0,24.862c0,3.825-0.957,7.65-0.957,12.431
	c0,0.957,0,1.913,0,2.869c0,0.957-0.956,3.825,0,0.957c0,1.913-0.956,4.781-0.956,6.694c-0.957,8.606-2.869,16.256-3.825,24.862
	c-0.956,7.65-1.913,15.3-3.825,22.95c-1.913,13.387-5.738,25.818-7.65,39.206c-1.912,14.344-2.869,29.644,1.913,43.987
	c0.957,2.869,2.869,6.694,4.781,9.562c3.825,6.694,11.475,8.606,18.169,4.781c7.65-3.825,13.387-10.519,19.125-16.256
	c6.694-8.606,12.431-17.213,18.168-25.819c5.737-8.605,11.476-18.168,17.213-26.774c2.868-4.781,5.737-8.606,8.606-13.388
	c0.956-1.913,2.868-3.825,3.824-5.737c0.957-0.957,0.957-1.913,1.913-2.869c0.956-1.912-1.913,2.869-0.956,0.957
	c0-0.957,0.956-0.957,0.956-1.913c2.868-3.825,5.737-6.694,8.606-9.562c0.956-0.956,0.956-0.956,1.912-1.913
	c0.956-0.956,3.825-2.869,0,0c1.912-0.956,2.869-1.913,4.781-2.869c0.956,0,0.956-0.956,1.912-0.956
	c1.913-0.957-3.824,1.912-1.912,0.956h0.956c0.956,0,0.956,0,1.913-0.956h0.956c1.912,0-4.781,0.956-1.913,0h0.957
	c1.912,0-3.825-0.957-0.957,0c0.957,0,2.869,0.956-0.956-0.957l0.956,0.957c-2.868-1.913-1.912-1.913-0.956-0.957
	c1.913,1.913-1.912-2.869-0.956-0.956l0.956,0.956c0.956,1.913-1.912-3.825,0-0.956c1.913,4.781,2.869,9.562,5.737,14.344
	c4.781,6.694,12.432,10.519,21.038,13.387c14.344,3.825,27.731-1.912,37.294-12.431c7.649-8.606,14.344-19.125,20.081-29.644
	c4.781-8.606,8.606-18.169,12.431-28.688c5.738-17.212,9.562-37.294,7.65-55.462c-0.956-19.125-7.65-37.294-20.081-51.638
	c-13.388-15.3-33.469-21.994-53.55-23.906c-12.432-0.956-24.863,0.956-36.338,2.869c-11.475,2.869-21.994,6.694-32.513,12.431
	c-21.993,11.475-40.162,29.644-56.418,47.812c-32.513,37.294-58.332,81.281-78.413,126.225
	c-13.387,29.644-23.906,60.244-31.556,91.8c-7.65,30.6-12.431,61.2-15.3,91.8c-0.957,11.475-1.913,23.906-2.869,35.381
	c0,5.738,0,12.432,0,18.169c0,6.694,0.957,13.388,0,19.125c0,5.737,4.781,9.562,9.562,9.562c5.738,0,9.562-4.781,9.562-9.562
	c0,2.869,0-1.912,0-2.868c0-0.957,0-1.913,0-2.869c0-1.912,0-3.825,0.957-5.737c0,0,0.956-3.825,0-0.956
	c0-1.913,0-2.869,0.956-4.781c0-1.913,0.957-4.781,0.957-6.694c0-0.956,0-1.912,0-2.868v-0.957c0,1.913,0,1.913,0-1.912
	c0-1.912,0-3.825,0.956-5.737c0-3.825,0.956-8.606,0.956-12.432c0.957-7.649,1.913-15.3,2.869-22.95c0-0.956,0-1.912,0-2.868
	c0-2.869,0,2.868,0,0c0-1.913,0.956-3.825,0.956-5.737c0-1.913,0.956-6.694,0-2.869c0-0.956,0-1.912,0-2.868
	c0-1.913,0.956-3.825,0.956-6.694c4.781-29.644,11.475-59.287,20.082-88.931c4.781-15.301,9.562-29.645,16.256-43.988
	c0.956-1.913,1.912-3.825,1.912-5.738c0-0.956,0.957-1.913,0.957-2.869c0.956-2.869-0.957,2.869,0,0
	c1.913-3.825,3.825-7.65,4.781-11.475c1.913-4.781,4.781-9.562,6.694-14.344c10.519-21.994,21.994-42.075,35.381-62.156
	c3.825-5.737,6.694-10.519,10.519-16.256c1.913-2.869,3.825-4.781,5.737-7.65c0.957-0.956,1.913-2.869,2.869-3.825
	c1.913-1.913-1.912,2.869,0,0c0.957-0.957,0.957-1.913,1.913-2.869c7.65-9.562,16.256-19.125,24.862-27.731
	c3.825-3.825,8.606-8.606,13.388-12.431c0.956-0.957,1.913-1.913,2.869-2.869c0.956,0,0.956-0.956,1.912-0.956
	c-3.825,2.869-1.912,0.956-0.956,0.956c1.912-1.912,4.781-3.825,7.65-4.781c4.781-2.869,9.562-5.737,14.344-8.606
	c1.912-0.957,4.781-1.913,6.693-2.869c2.869-0.957-3.825,0.956-0.956,0c0.956,0,0.956,0,1.912-0.957
	c0.956-0.956,2.869-0.956,3.825-1.913c4.781-1.912,10.519-2.869,15.3-3.825c0.956,0,6.694-0.957,0.956,0
	c0.957,0,2.869,0,3.825-0.957c2.869,0,5.737,0,8.606-0.956c2.869,0,4.781,0,7.65,0c0.956,0,2.868,0,3.824,0
	c0.957,0,6.694,0.956,0.957,0c4.781,0.956,8.605,1.913,13.387,2.869c0.957,0,1.913,0.957,2.869,0.957
	c1.912,0.956-3.825-1.913-1.912-0.957c0,0,0.956,0,0.956,0.957c1.912,0.956,3.825,1.912,5.737,2.869
	c1.912,0.956,2.869,1.913,4.781,2.869c-4.781-2.869-0.956-0.956,0,0c0.956,0.957,1.912,0.957,1.912,1.913
	c0.957,0.956,2.869,2.869,3.825,3.825l0.956,0.957c0.957,1.913-2.868-2.869-0.956-1.913c0.956,0.957,0.956,1.913,1.913,2.869
	c1.912,2.869,3.824,6.694,5.737,9.562c-1.913-4.781-0.956-1.912,0,0c0,0.957,0.956,1.913,0.956,2.869
	c0.956,1.912,0.956,3.825,1.912,5.737c0,1.913,0.957,3.825,0.957,5.737c0,0.957,0,1.913,0,2.869c0,1.912-0.957-3.825,0-1.913
	c0,0.956,0,0.956,0,1.913c0.956,8.606,0.956,17.212,0,25.818c0,0.957,0,3.825,0-1.912c0,0.956,0,0.956,0,1.912
	c0,0.957,0,1.913-0.957,2.869c0,1.912-0.956,4.781-0.956,6.693c-0.956,4.781-1.912,8.606-3.825,13.388
	c-0.956,1.913-0.956,3.825-1.912,6.694c0,0.956-0.956,1.913-0.956,2.869s-2.869,5.737,0,0.956
	c-1.913,3.825-3.825,8.606-5.737,12.432c-1.913,4.781-4.781,8.606-7.65,12.431c-1.912,2.869-3.825,4.781-4.781,7.65
	c0,0.956-0.956,0.956-0.956,1.913c2.868-2.869,0.956-0.957,0-0.957c-0.956,0.957-1.913,1.913-2.869,3.825
	c-0.956,0.956-1.912,1.913-2.868,2.869c-1.913,1.913,2.868-1.913,0.956-0.956l-0.956,0.956c-0.957,0.956-4.781,1.913,0,0
	c-0.957,0.956-2.869,0.956-3.825,0.956c-1.913,0,3.825,0,0.956,0c-0.956,0-0.956,0-1.912,0c-0.957,0-0.957,0-1.913,0
	c4.781,0,1.913,0,0.956,0c-0.956,0-2.868-0.956-3.824-0.956c-0.957,0-1.913-0.956-1.913-0.956c3.825,1.912,0,0-0.956,0
	s-0.956-0.957-1.912-0.957c3.824,1.913,1.912,1.913,0.956,0.957c-1.913-1.913,1.912,2.869,0.956,0.956c0,0,0-0.956-0.956-0.956
	c-0.956-1.913,0.956,3.825,0.956,0.956v-0.956c0-0.957-0.956-1.913-0.956-3.825c-1.913-7.65-4.781-12.431-11.476-17.212
	c-9.562-6.694-22.949-2.869-31.556,2.869c-7.65,4.781-14.344,11.475-20.081,19.125c-6.694,8.606-13.388,18.169-19.125,26.775
	c-5.738,8.606-11.476,18.169-17.213,26.775c-2.869,3.826-5.737,8.607-8.606,12.431c-0.956,1.913-2.869,3.825-3.825,5.737
	l-0.957,0.957c2.869-3.825,0.957-1.913,0.957-0.957c-0.957,0.957-1.913,1.913-1.913,2.869c-1.913,2.869-4.781,4.781-7.65,7.65
	c-0.957,0.956-0.957,0.956-1.913,0.956c-1.913,1.912,2.869-1.913,0,0c-0.956,0.956-2.869,1.912-3.825,2.868
	c5.738,1.913,12.432,2.869,18.169,4.781c-0.956-0.956-1.913-2.868-1.913-3.824c-0.956-2.869,0.957,2.868,0,0.956
	c0-0.956-0.956-0.956-0.956-1.913c0-0.956-0.957-2.868-0.957-3.824c0-0.957,0-1.913,0-1.913c0-0.956-0.956-4.781,0,0
	c-0.956-6.693,0-13.388,0-20.081c0-0.956,0-1.912,0-2.869c-0.956,3.825,0,0.957,0,0c0-1.912,0.957-2.868,0.957-4.781
	c0.956-3.825,0.956-6.694,1.913-10.519c0.956-6.693,2.869-12.431,3.825-19.125c0.957-6.693,1.913-14.344,3.825-21.037
	c0.956-8.606,2.869-16.256,3.825-24.863c2.869-17.212,4.781-35.381,4.781-52.594c0-1.913,0-4.781,0-6.694
	c-0.956-5.737-3.825-10.519-9.562-12.431c-5.737-1.913-11.475,0.957-14.344,5.738c-5.737,8.606-10.519,19.125-14.344,28.688
	c-7.65,17.212-14.344,34.425-21.037,51.637c-14.344,37.294-26.775,75.543-38.25,113.793c-2.869,10.52-5.738,21.994-8.606,33.469
	c0,1.913-0.956,3.825-0.956,6.694v0.956c0,0,0,0,0,0.956s0,1.913,0,2.869c0-2.869,0.956-2.869,0-1.913
	c0,1.913-0.957,3.825-0.957,5.738c0,2.868-0.956,5.737-0.956,8.605c0,5.738,4.781,11.476,11.475,11.476
	C300.375,425.531,305.156,420.75,305.156,414.057"/>
<g id="XMLID_3_" display="none">
	<path id="XMLID_12_" display="inline" d="M759.375,427.443c0,0,2.869-4.781,8.606-13.387c5.737-8.606,14.344-21.994,25.818-38.25
		c11.476-16.257,26.775-34.426,45.9-54.507s42.075-41.119,67.894-62.156c26.775-21.037,57.375-42.075,92.756-60.244
		c35.382-17.212,74.588-33.469,119.531-36.337c21.994-1.913,45.9,0,68.851,9.562c2.868,0.956,5.737,2.869,8.606,3.825
		c0.956,0.956,2.868,1.912,3.824,1.912l1.913,0.957h0.956l0.956,0.956l0.956,0.957l2.869,1.912l1.912,0.957l1.913,1.913
		c2.868,1.912,5.737,4.781,7.649,7.65c9.562,9.562,15.301,21.994,18.169,35.381c2.869,13.387,1.913,26.775-1.912,39.206
		s-10.519,23.906-18.169,32.513c-14.344,18.169-29.644,35.381-46.856,50.681c-8.606,7.65-18.169,14.344-30.6,20.082
		c-5.737,2.868-13.388,4.781-21.994,2.868c-3.825-0.956-8.606-2.868-11.475-4.781c-3.825-3.825-5.737-6.693-7.65-9.562
		c-5.737-12.431-7.649-23.906-10.519-34.425l-4.781-16.256c-1.912-4.782-2.869-9.563-4.781-13.388c-0.956-1.913-1.912-1.913,0-0.957
		l1.912,0.957l-1.912-0.957c0,0,0,0-0.956,0c-1.913,0-5.737,0-9.562,1.913c-7.65,2.869-16.257,8.606-24.862,14.344
		c-16.257,11.475-32.513,25.818-47.812,40.162c-3.825,3.825-7.65,6.694-12.432,10.52c-1.912,1.912-4.781,3.824-6.693,5.737
		c-2.869,1.912-4.781,3.825-10.52,4.781c-1.912,0-3.824,0-6.693,0c-0.956-0.956-2.869-0.956-3.825-1.913l-0.956-0.956
		c-3.825-3.825-3.825-5.737-4.781-8.606c-0.956-4.781-0.956-7.649,0-11.475c0.956-5.737,2.869-11.475,3.825-16.256
		c6.693-20.082,15.3-38.25,22.95-55.463c8.605-17.212,16.256-34.425,23.906-50.681c3.824-7.65,7.649-16.256,11.475-22.95
		c0.956-1.913,1.912-3.825,1.912-4.781l0.957-1.913c0,0,0,0,0,0.957c0,0,0,0,0,1.913c0,0.956,0,0.956,0,1.912
		c0,0.957,0.956,2.869,0.956,3.825s1.912,2.869,3.825,4.781c1.912,1.913,7.649,2.869,4.781,1.913l0,0c0,0,0.956,0,1.912,0
		s1.912,0,1.912,0h0.957h0.956c0,0,0,0-0.956,0c-0.957,0.956-2.869,1.913-3.825,2.869c-12.432,8.606-23.906,20.081-34.425,30.6
		c-10.52,10.519-21.038,20.081-30.601,29.644c-19.125,19.125-35.381,35.381-48.769,49.725s-23.906,24.862-30.6,32.513
		c-3.825,3.825-5.738,6.693-7.65,8.606c-0.956,1.912-1.912,2.868-1.912,2.868l-0.957,0.956c-2.868,3.825-9.562,4.781-13.387,1.913
		c-3.825-2.869-4.781-8.606-1.913-12.432c0,0,0.956-0.956,2.869-3.825c1.912-2.868,3.825-5.737,6.693-10.519
		c6.694-8.606,16.257-21.037,28.688-35.381c12.432-15.3,28.688-32.513,47.812-52.594c9.562-9.562,20.081-20.082,30.601-31.557
		c11.475-10.519,22.949-21.994,37.293-33.469c1.913-0.956,3.825-2.869,6.694-4.781c0.956-0.956,2.868-1.912,4.781-2.869
		c0.956,0,1.912,0,1.912-0.956c0.956,0,0,0,1.913,0c0.956,0,1.912,0,2.868,0s2.869,0,2.869,0l0,0
		c-1.913-0.957,2.868,0.956,5.737,1.913c1.912,0.956,3.825,3.825,4.781,4.781c0.956,0.956,0.956,2.869,1.912,4.781
		c0,0.956,0,1.913,0,1.913c0,1.912,0,1.912,0,2.869c0,1.913,0,2.869-0.956,3.825c-0.956,1.913-0.956,2.869-1.912,4.781
		c-0.956,2.869-1.913,4.781-2.869,6.694c-3.825,8.606-8.606,16.256-12.431,23.906c-7.65,16.256-17.213,31.556-26.775,48.769
		c-9.562,16.256-19.125,33.469-25.818,51.638c-1.913,4.781-2.869,8.606-3.825,12.432c0,1.912,0,3.824,0,3.824s0.956,0-1.913-1.912
		l0.957,0.956c-0.957-0.956-0.957-0.956-1.913-0.956s-1.912,0-2.868,0c-0.957,0,1.912-0.956,2.868-1.912
		c1.913-0.957,3.825-2.869,5.737-4.781c3.825-2.869,7.65-6.694,10.52-10.52c14.344-14.344,28.688-30.6,45.899-45.899
		c8.606-7.65,18.169-14.344,30.601-20.082c6.693-2.869,13.387-4.781,21.993-3.825c1.913,0,3.825,0,6.694,0.956
		c1.912,0,1.912,0.956,2.868,0.956c1.913,0.957,3.825,1.913,5.737,2.869c5.738,4.781,7.65,9.562,8.606,13.387
		c2.869,7.65,2.869,13.388,3.825,19.125c0.956,5.738,0.956,11.475,0.956,17.212c0.956,10.519,1.913,21.994,5.737,29.644
		c1.913,5.738,7.65,6.694,16.257,2.869s17.212-10.519,24.862-17.213c15.3-14.344,28.688-31.556,41.119-49.725
		c5.737-8.606,10.519-17.212,12.431-25.819c1.913-8.606,1.913-18.168,0-26.775c-1.912-8.606-5.737-16.256-11.475-21.994
		c-0.956-1.913-2.869-2.869-3.825-3.825l-0.956-0.956l-1.913-0.957l-2.868-1.912c-2.869-1.913-7.65-4.781-11.476-6.694
		c-17.212-7.65-36.337-9.562-56.418-8.606c-39.207,1.913-76.5,16.256-109.969,31.556C977.4,237.15,946.8,256.275,920.025,275.4
		c-26.775,19.125-49.726,39.207-68.851,58.332c-19.125,18.169-35.381,36.337-47.812,50.681
		c-12.431,15.301-21.037,26.775-27.731,35.382c-5.737,8.606-9.562,13.388-9.562,13.388c-1.912,1.912-4.781,2.868-6.693,0.956
		C759.375,433.182,758.419,430.312,759.375,427.443L759.375,427.443z"/>
</g>
<line id="XMLID_1_" display="none" fill="none" stroke="#000000" stroke-miterlimit="10" x1="702" y1="362.419" x2="1314" y2="362.419"/>
<image display="none" overflow="visible" enable-background="new    " width="277" height="176" id="XMLID_4_" xlink:href="3AA76F8C029CB2EE.jpeg"  transform="matrix(2.2367 0 0 2.1872 86.2656 113.5547)">
</image>
<path id="XMLID_6_" display="none" fill="none" stroke="#000000" stroke-width="3" stroke-linecap="round" stroke-miterlimit="10" d="
	M-390.038,423.619c0,0,179.775-158.738,201.769-158.738c9.562,0,9.562,4.781,9.562,10.519c0,5.738-64.069,113.793-64.069,131.006
	c0,10.519,3.825,17.213,11.475,17.213c7.65,0,96.581-61.2,103.275-61.2s7.65,21.037,7.65,28.688c0,15.3,7.65,31.556,28.688,31.556
	c46.856,0,97.538-50.681,97.538-110.925c0-77.456-68.85-155.869-150.131-155.869c-153,0-332.775,246.712-332.775,303.131"/>
<image display="none" overflow="visible" enable-background="new    " width="86" height="44" id="XMLID_5_" xlink:href="3AA76F8C029CB2F2.jpeg"  transform="matrix(7.2491 0 0 7.3344 84.2656 144.6328)">
</image>
<g id="XMLID_8_">
	<path id="XMLID_17_" d="M373.174,317.012c0,0,2.082-2.525,5.8-6.84c1.934-2.082,4.312-4.61,7.287-7.436
		c1.487-1.339,3.123-2.826,4.908-4.312c0.892-0.744,1.934-1.487,2.974-2.083c1.041-0.744,2.231-1.338,3.867-1.785
		c0.446-0.149,0.892-0.149,1.487-0.297h0.148h0.297h0.149h0.297c0.298,0,0.893,0.148,1.34,0.446
		c0.893,0.446,1.337,1.488,1.487,2.083c0.148,0.744,0.148,1.19,0,1.636c-0.15,0.893-0.447,1.636-0.595,2.379
		c-0.298,0.744-0.596,1.338-0.893,1.934c-1.637,2.677-3.123,5.057-4.463,7.436c-0.297,0.594-0.743,1.189-1.04,1.785
		c-0.298,0.596-0.595,1.189-0.744,1.637c-0.149,0.742,0.149,1.783,0.892,2.379c0.447,0.295,0.892,0.445,1.339,0.594
		c0.297,0,0.595,0.148,0.893,0.148h0.147h0.298h0.595c1.339-0.148,2.528-0.447,3.867-1.039c1.339-0.596,2.527-1.189,3.865-2.082
		c1.34-0.744,2.976-1.488,4.76-1.936c3.569-0.893,7.435,0,10.41,1.34c3.123,1.338,5.799,2.975,8.477,3.42
		c0.297,0,0.744,0.148,0.893,0.148h0.595h0.445c0.595-0.148,1.19-0.299,1.637-0.594c0.894-0.596,1.487-1.637,1.487-2.826
		c0-2.826-1.637-5.354-3.72-7.584c-2.08-2.083-4.757-3.867-7.434-5.354c-5.355-2.825-11.303-4.759-16.955-5.651
		c-1.485-0.297-2.824-0.446-4.162-0.446h-1.042h-1.04c-0.744,0-1.487,0-2.231,0.149c-2.975,0-5.503,0.595-8.18,0.892
		c-5.205,1.042-10.112,2.827-14.276,4.908c-4.165,2.23-7.733,4.61-10.856,6.99c-2.974,2.527-5.353,4.76-7.287,6.842
		s-3.272,3.865-4.016,5.055c-0.892,1.189-1.339,1.934-1.339,1.934c-0.148,0.299-0.595,0.447-1.041,0.299
		c0-0.299,0-0.744,0.148-1.189c0,0,0.297-0.746,1.19-2.082c0.744-1.34,2.082-3.273,3.718-5.502c1.785-2.381,4.016-4.91,6.99-7.735
		c2.975-2.677,6.692-5.502,11.005-8.031c4.462-2.379,9.518-4.461,15.168-5.8c2.826-0.446,5.949-1.041,8.775-1.189
		c0.744,0,1.487-0.148,2.231-0.148h0.595h0.298h0.147h0.297h1.19c1.637,0,3.122,0.297,4.759,0.446
		c6.246,1.041,12.344,3.42,18.143,6.841c2.827,1.785,5.504,3.718,7.883,6.395c1.189,1.338,2.231,2.677,2.975,4.312
		c0.446,0.744,0.744,1.637,1.04,2.529c0.149,0.445,0.149,0.893,0.3,1.486c0.147,0.447,0,0.895,0.147,1.34
		c0,1.189-0.147,2.082-0.595,3.123c-0.446,1.039-1.19,1.783-2.083,2.379c-0.893,0.594-1.933,1.041-2.825,1.189l-0.743,0.148h-0.595
		c-0.596,0-1.042,0-1.487,0c-3.72-0.297-6.842-1.934-9.667-2.826c-1.487-0.445-2.826-0.891-4.165-1.041
		c-0.297,0-0.595-0.146-0.892-0.146h-0.594h-0.299c0.149,0-0.147,0-0.147,0c-0.596,0-1.34,0-1.935,0.146
		c-2.528,0.445-5.205,1.934-8.475,2.977c-1.637,0.443-3.272,0.742-4.909,0.742h-0.595H399.2c-0.149,0-0.299,0-0.447,0
		c-0.445,0-0.892-0.148-1.338-0.148c-0.893-0.15-1.785-0.594-2.529-1.189c-1.636-1.191-2.379-3.271-2.082-5.354
		c0.298-1.041,0.595-1.637,0.892-2.381c0.297-0.742,0.595-1.338,0.892-1.932c1.19-2.53,2.38-4.909,3.421-7.289
		c0.446-1.041,0.892-2.379,0.892-2.974c0-0.148,0-0.297,0-0.148s0.149,0.446,0.447,0.744c0.148,0,0.148,0.148,0.297,0.148h0.149
		c0,0,0.147,0,0,0h-0.298h-0.148c0.148,0-0.298,0,0.148,0l0,0c-0.148,0-0.148,0-0.446,0c-0.743,0.149-1.636,0.743-2.528,1.338
		c-0.892,0.595-1.785,1.19-2.677,1.785c-1.637,1.339-3.272,2.678-4.76,3.867c-2.974,2.53-5.353,4.909-7.435,6.842
		s-3.569,3.568-4.61,4.609s-1.636,1.637-1.636,1.637c-0.595,0.594-1.487,0.594-2.083,0
		C372.728,318.5,372.728,317.607,373.174,317.012z"/>
</g>
</svg>
